P2
3 2
15
12 5 4
7 8 10
