P3
3 2
255
128 56 34
87 92 10
69 69 69
47 2 189
73 46 220
0 56 123
