P3
3 2
255
0 56 123
73 46 220
47 2 189
69 69 69
87 92 10
128 56 34
