P3
3 2
255
75 75 75
81 81 81
69 69 69
36 36 36
73 73 73
46 46 46
