P3
2 3
255
69 69 69
0 56 123
87 92 10
73 46 220
128 56 34
47 2 189
