P2
2 3
15
0 15
0 15
15 0
