P2
2 3
15
4 10
5 8
12 7
