P2
3 2
15
10 8 7
4 5 12
