P2
2 4
15
4 10
5 8
12 7
0 0
