P3
3 2
255
127 199 221
168 163 245
186 186 186
208 253 66
182 209 35
255 199 132
