P2
2 3
15
11 5
10 7
3 8
